<svg width="31" height="31" viewBox="0 0 31 31" fill="none" xmlns="http://www.w3.org/2000/svg">
<g clip-path="url(#clip0_14_61)">
<path d="M9.04169 23.25C7.62085 23.25 6.47127 24.4125 6.47127 25.8333C6.47127 27.2542 7.62085 28.4167 9.04169 28.4167C10.4625 28.4167 11.625 27.2542 11.625 25.8333C11.625 24.4125 10.4625 23.25 9.04169 23.25ZM1.29169 2.58334V5.16667H3.87502L8.52502 14.9704L6.78127 18.135C6.5746 18.4967 6.45835 18.9229 6.45835 19.375C6.45835 20.7958 7.62085 21.9583 9.04169 21.9583H24.5417V19.375H9.58419C9.40335 19.375 9.26127 19.2329 9.26127 19.0521L9.30002 18.8971L10.4625 16.7917H20.0854C21.0542 16.7917 21.9067 16.2621 22.3459 15.4613L26.97 7.07834C27.0734 6.8975 27.125 6.67792 27.125 6.45834C27.125 5.74792 26.5438 5.16667 25.8334 5.16667H6.7296L5.51544 2.58334H1.29169ZM21.9584 23.25C20.5375 23.25 19.3879 24.4125 19.3879 25.8333C19.3879 27.2542 20.5375 28.4167 21.9584 28.4167C23.3792 28.4167 24.5417 27.2542 24.5417 25.8333C24.5417 24.4125 23.3792 23.25 21.9584 23.25Z" fill="black"/>
</g>
<defs>
<clipPath id="clip0_14_61">
<rect width="31" height="31" fill="white"/>
</clipPath>
</defs>
</svg>
